<mxfile host="app.diagrams.net" modified="2023-05-12T21:10:45.452Z" agent="Mozilla/5.0 (Windows NT 10.0; Win64; x64; rv:109.0) Gecko/20100101 Firefox/112.0" etag="1ykNn8m_7eGjjIaKU190" version="21.3.0" type="github">
  <diagram name="PÃ¡gina-1" id="dB3eKQBNZShQxtix_K70">
    <mxGraphModel dx="731" dy="434" grid="1" gridSize="10" guides="1" tooltips="1" connect="1" arrows="1" fold="1" page="1" pageScale="1" pageWidth="827" pageHeight="1169" math="0" shadow="0">
      <root>
        <mxCell id="0" />
        <mxCell id="1" parent="0" />
        <mxCell id="87kUoaWlma9BREmuZmnL-1" value="MINIBOLT NETWORKMAP" style="text;html=1;strokeColor=#6c8ebf;fillColor=#dae8fc;align=center;verticalAlign=middle;whiteSpace=wrap;rounded=0;" parent="1" vertex="1">
          <mxGeometry x="10" y="10" width="130" height="50" as="geometry" />
        </mxCell>
        <mxCell id="n0-edF3tHvyob96DkQFq-1" value="TOR" style="rounded=0;whiteSpace=wrap;html=1;" vertex="1" parent="1">
          <mxGeometry x="310" y="120" width="280" height="60" as="geometry" />
        </mxCell>
      </root>
    </mxGraphModel>
  </diagram>
</mxfile>
